<svg xmlns="http://www.w3.org/2000/svg" width="400" height="400" viewBox="0 0 400 400">
<rect width="400" height="400" fill="#1a1a2e"/>
<circle cx="238.4" cy="172.5" r="2" fill="#e85050" opacity="0.8"/>
<circle cx="251.9" cy="177.5" r="2" fill="#e85050" opacity="0.8"/>
<circle cx="233.4" cy="183.2" r="2" fill="#e85050" opacity="0.8"/>
<circle cx="223.5" cy="182.1" r="2" fill="#e85050" opacity="0.8"/>
<circle cx="246.9" cy="177.6" r="2" fill="#e85050" opacity="0.8"/>
<circle cx="213.9" cy="172.5" r="2" fill="#e85050" opacity="0.8"/>
<circle cx="259.0" cy="187.4" r="2" fill="#e85050" opacity="0.8"/>
<circle cx="239.5" cy="175.4" r="2" fill="#e85050" opacity="0.8"/>
<circle cx="243.3" cy="186.8" r="2" fill="#e85050" opacity="0.8"/>
<circle cx="241.2" cy="167.7" r="2" fill="#e85050" opacity="0.8"/>
<circle cx="226.3" cy="190.3" r="2" fill="#e85050" opacity="0.8"/>
<circle cx="234.7" cy="194.2" r="2" fill="#e85050" opacity="0.8"/>
<circle cx="255.8" cy="161.5" r="2" fill="#e85050" opacity="0.8"/>
<circle cx="234.6" cy="195.4" r="2" fill="#e85050" opacity="0.8"/>
<circle cx="215.4" cy="174.6" r="2" fill="#e85050" opacity="0.8"/>
<circle cx="233.0" cy="180.4" r="2" fill="#e85050" opacity="0.8"/>
<circle cx="261.9" cy="165.9" r="2" fill="#e85050" opacity="0.8"/>
<circle cx="254.0" cy="193.7" r="2" fill="#e85050" opacity="0.8"/>
<circle cx="277.3" cy="164.3" r="2" fill="#e85050" opacity="0.8"/>
<circle cx="269.5" cy="171.7" r="2" fill="#e85050" opacity="0.8"/>
<circle cx="235.5" cy="177.3" r="2" fill="#e85050" opacity="0.8"/>
<circle cx="226.6" cy="194.9" r="2" fill="#e85050" opacity="0.8"/>
<circle cx="244.1" cy="175.5" r="2" fill="#e85050" opacity="0.8"/>
<circle cx="235.5" cy="180.9" r="2" fill="#e85050" opacity="0.8"/>
<circle cx="258.1" cy="168.4" r="2" fill="#e85050" opacity="0.8"/>
<circle cx="265.4" cy="170.0" r="2" fill="#e85050" opacity="0.8"/>
<circle cx="226.1" cy="184.0" r="2" fill="#e85050" opacity="0.8"/>
<circle cx="232.1" cy="178.2" r="2" fill="#e85050" opacity="0.8"/>
<circle cx="233.9" cy="190.0" r="2" fill="#e85050" opacity="0.8"/>
<circle cx="254.7" cy="162.8" r="2" fill="#e85050" opacity="0.8"/>
<circle cx="235.3" cy="167.9" r="2" fill="#e85050" opacity="0.8"/>
<circle cx="257.2" cy="184.2" r="2" fill="#e85050" opacity="0.8"/>
<circle cx="235.1" cy="178.5" r="2" fill="#e85050" opacity="0.8"/>
<circle cx="237.6" cy="180.3" r="2" fill="#e85050" opacity="0.8"/>
<circle cx="246.9" cy="189.1" r="2" fill="#e85050" opacity="0.8"/>
<circle cx="231.9" cy="187.3" r="2" fill="#e85050" opacity="0.8"/>
<circle cx="245.8" cy="167.3" r="2" fill="#e85050" opacity="0.8"/>
<circle cx="254.8" cy="169.2" r="2" fill="#e85050" opacity="0.8"/>
<circle cx="235.9" cy="167.3" r="2" fill="#e85050" opacity="0.8"/>
<circle cx="244.5" cy="167.0" r="2" fill="#e85050" opacity="0.8"/>
<circle cx="229.3" cy="176.6" r="2" fill="#e85050" opacity="0.8"/>
<circle cx="274.6" cy="163.2" r="2" fill="#e85050" opacity="0.8"/>
<circle cx="276.0" cy="172.4" r="2" fill="#e85050" opacity="0.8"/>
<circle cx="247.3" cy="163.7" r="2" fill="#e85050" opacity="0.8"/>
<circle cx="231.2" cy="181.2" r="2" fill="#e85050" opacity="0.8"/>
<circle cx="252.1" cy="183.8" r="2" fill="#e85050" opacity="0.8"/>
<circle cx="231.9" cy="193.0" r="2" fill="#e85050" opacity="0.8"/>
<circle cx="223.5" cy="191.2" r="2" fill="#e85050" opacity="0.8"/>
<circle cx="241.3" cy="181.7" r="2" fill="#e85050" opacity="0.8"/>
<circle cx="224.5" cy="191.5" r="2" fill="#e85050" opacity="0.8"/>
<circle cx="223.8" cy="194.7" r="2" fill="#e85050" opacity="0.8"/>
<circle cx="246.1" cy="196.2" r="2" fill="#e85050" opacity="0.8"/>
<circle cx="248.0" cy="176.5" r="2" fill="#e85050" opacity="0.8"/>
<circle cx="243.7" cy="182.9" r="2" fill="#e85050" opacity="0.8"/>
<circle cx="257.7" cy="178.1" r="2" fill="#e85050" opacity="0.8"/>
<circle cx="224.6" cy="186.3" r="2" fill="#e85050" opacity="0.8"/>
<circle cx="247.4" cy="192.0" r="2" fill="#e85050" opacity="0.8"/>
<circle cx="234.2" cy="199.8" r="2" fill="#e85050" opacity="0.8"/>
<circle cx="231.1" cy="177.3" r="2" fill="#e85050" opacity="0.8"/>
<circle cx="238.2" cy="192.8" r="2" fill="#e85050" opacity="0.8"/>
<circle cx="251.2" cy="182.7" r="2" fill="#e85050" opacity="0.8"/>
<circle cx="229.1" cy="176.4" r="2" fill="#e85050" opacity="0.8"/>
<circle cx="232.1" cy="180.4" r="2" fill="#e85050" opacity="0.8"/>
<circle cx="242.8" cy="185.7" r="2" fill="#e85050" opacity="0.8"/>
<circle cx="241.3" cy="177.1" r="2" fill="#e85050" opacity="0.8"/>
<circle cx="228.1" cy="168.6" r="2" fill="#e85050" opacity="0.8"/>
<circle cx="221.4" cy="191.7" r="2" fill="#e85050" opacity="0.8"/>
<circle cx="223.1" cy="172.7" r="2" fill="#e85050" opacity="0.8"/>
<circle cx="254.6" cy="165.9" r="2" fill="#e85050" opacity="0.8"/>
<circle cx="265.6" cy="179.4" r="2" fill="#e85050" opacity="0.8"/>
<circle cx="250.9" cy="179.5" r="2" fill="#e85050" opacity="0.8"/>
<circle cx="260.0" cy="163.7" r="2" fill="#e85050" opacity="0.8"/>
<circle cx="235.4" cy="191.3" r="2" fill="#e85050" opacity="0.8"/>
<circle cx="237.8" cy="187.7" r="2" fill="#e85050" opacity="0.8"/>
<circle cx="248.8" cy="177.8" r="2" fill="#e85050" opacity="0.8"/>
<circle cx="244.6" cy="177.5" r="2" fill="#e85050" opacity="0.8"/>
<circle cx="261.4" cy="170.3" r="2" fill="#e85050" opacity="0.8"/>
<circle cx="252.9" cy="182.6" r="2" fill="#e85050" opacity="0.8"/>
<circle cx="232.9" cy="187.4" r="2" fill="#e85050" opacity="0.8"/>
<circle cx="228.1" cy="185.1" r="2" fill="#e85050" opacity="0.8"/>
<circle cx="264.5" cy="179.4" r="2" fill="#e85050" opacity="0.8"/>
<circle cx="258.3" cy="177.3" r="2" fill="#e85050" opacity="0.8"/>
<circle cx="234.1" cy="191.8" r="2" fill="#e85050" opacity="0.8"/>
<circle cx="267.8" cy="164.0" r="2" fill="#e85050" opacity="0.8"/>
<circle cx="237.4" cy="176.9" r="2" fill="#e85050" opacity="0.8"/>
<circle cx="271.1" cy="180.2" r="2" fill="#e85050" opacity="0.8"/>
<circle cx="224.5" cy="168.9" r="2" fill="#e85050" opacity="0.8"/>
<circle cx="261.2" cy="185.4" r="2" fill="#e85050" opacity="0.8"/>
<circle cx="217.3" cy="179.1" r="2" fill="#e8a050" opacity="0.8"/>
<circle cx="227.5" cy="146.0" r="2" fill="#e8a050" opacity="0.8"/>
<circle cx="207.4" cy="148.7" r="2" fill="#e8a050" opacity="0.8"/>
<circle cx="218.4" cy="161.7" r="2" fill="#e8a050" opacity="0.8"/>
<circle cx="198.1" cy="160.1" r="2" fill="#e8a050" opacity="0.8"/>
<circle cx="207.7" cy="149.2" r="2" fill="#e8a050" opacity="0.8"/>
<circle cx="226.8" cy="168.5" r="2" fill="#e8a050" opacity="0.8"/>
<circle cx="192.9" cy="173.1" r="2" fill="#e8a050" opacity="0.8"/>
<circle cx="206.7" cy="169.2" r="2" fill="#e8a050" opacity="0.8"/>
<circle cx="226.6" cy="130.9" r="2" fill="#e8a050" opacity="0.8"/>
<circle cx="194.8" cy="171.5" r="2" fill="#e8a050" opacity="0.8"/>
<circle cx="218.5" cy="129.7" r="2" fill="#e8a050" opacity="0.8"/>
<circle cx="201.2" cy="151.9" r="2" fill="#e8a050" opacity="0.8"/>
<circle cx="215.1" cy="126.1" r="2" fill="#e8a050" opacity="0.8"/>
<circle cx="199.4" cy="153.5" r="2" fill="#e8a050" opacity="0.8"/>
<circle cx="200.6" cy="145.2" r="2" fill="#e8a050" opacity="0.8"/>
<circle cx="203.0" cy="138.0" r="2" fill="#e8a050" opacity="0.8"/>
<circle cx="216.7" cy="160.9" r="2" fill="#e8a050" opacity="0.8"/>
<circle cx="229.0" cy="145.3" r="2" fill="#e8a050" opacity="0.8"/>
<circle cx="215.5" cy="117.2" r="2" fill="#e8a050" opacity="0.8"/>
<circle cx="199.8" cy="171.5" r="2" fill="#e8a050" opacity="0.8"/>
<circle cx="225.9" cy="162.1" r="2" fill="#e8a050" opacity="0.8"/>
<circle cx="217.7" cy="130.4" r="2" fill="#e8a050" opacity="0.8"/>
<circle cx="209.2" cy="176.3" r="2" fill="#e8a050" opacity="0.8"/>
<circle cx="217.1" cy="166.6" r="2" fill="#e8a050" opacity="0.8"/>
<circle cx="217.0" cy="151.5" r="2" fill="#e8a050" opacity="0.8"/>
<circle cx="225.6" cy="169.6" r="2" fill="#e8a050" opacity="0.8"/>
<circle cx="219.7" cy="154.3" r="2" fill="#e8a050" opacity="0.8"/>
<circle cx="226.6" cy="135.5" r="2" fill="#e8a050" opacity="0.8"/>
<circle cx="221.2" cy="128.7" r="2" fill="#e8a050" opacity="0.8"/>
<circle cx="202.8" cy="159.8" r="2" fill="#e8a050" opacity="0.8"/>
<circle cx="212.6" cy="172.7" r="2" fill="#e8a050" opacity="0.8"/>
<circle cx="213.8" cy="136.2" r="2" fill="#e8a050" opacity="0.8"/>
<circle cx="202.3" cy="172.0" r="2" fill="#e8a050" opacity="0.8"/>
<circle cx="192.0" cy="158.2" r="2" fill="#e8a050" opacity="0.8"/>
<circle cx="189.9" cy="169.6" r="2" fill="#e8a050" opacity="0.8"/>
<circle cx="221.2" cy="156.2" r="2" fill="#e8a050" opacity="0.8"/>
<circle cx="211.9" cy="140.4" r="2" fill="#e8a050" opacity="0.8"/>
<circle cx="199.0" cy="147.4" r="2" fill="#e8a050" opacity="0.8"/>
<circle cx="201.7" cy="151.3" r="2" fill="#e8a050" opacity="0.8"/>
<circle cx="216.3" cy="128.9" r="2" fill="#e8a050" opacity="0.8"/>
<circle cx="205.4" cy="164.3" r="2" fill="#e8a050" opacity="0.8"/>
<circle cx="189.6" cy="157.6" r="2" fill="#e8a050" opacity="0.8"/>
<circle cx="209.7" cy="135.6" r="2" fill="#e8a050" opacity="0.8"/>
<circle cx="212.7" cy="129.0" r="2" fill="#e8a050" opacity="0.8"/>
<circle cx="192.9" cy="172.5" r="2" fill="#e8a050" opacity="0.8"/>
<circle cx="221.7" cy="128.0" r="2" fill="#e8a050" opacity="0.8"/>
<circle cx="222.1" cy="147.0" r="2" fill="#e8a050" opacity="0.8"/>
<circle cx="212.2" cy="139.5" r="2" fill="#e8a050" opacity="0.8"/>
<circle cx="191.3" cy="160.2" r="2" fill="#e8a050" opacity="0.8"/>
<circle cx="213.5" cy="170.8" r="2" fill="#e8a050" opacity="0.8"/>
<circle cx="214.6" cy="176.6" r="2" fill="#e8a050" opacity="0.8"/>
<circle cx="212.0" cy="145.5" r="2" fill="#e8a050" opacity="0.8"/>
<circle cx="210.6" cy="175.9" r="2" fill="#e8a050" opacity="0.8"/>
<circle cx="218.1" cy="159.3" r="2" fill="#e8a050" opacity="0.8"/>
<circle cx="225.0" cy="178.6" r="2" fill="#e8a050" opacity="0.8"/>
<circle cx="216.1" cy="160.8" r="2" fill="#e8a050" opacity="0.8"/>
<circle cx="186.4" cy="167.1" r="2" fill="#e8a050" opacity="0.8"/>
<circle cx="225.5" cy="167.4" r="2" fill="#e8a050" opacity="0.8"/>
<circle cx="187.4" cy="169.0" r="2" fill="#e8a050" opacity="0.8"/>
<circle cx="212.7" cy="162.2" r="2" fill="#e8a050" opacity="0.8"/>
<circle cx="220.1" cy="130.6" r="2" fill="#e8a050" opacity="0.8"/>
<circle cx="208.1" cy="158.9" r="2" fill="#e8a050" opacity="0.8"/>
<circle cx="189.9" cy="171.8" r="2" fill="#e8a050" opacity="0.8"/>
<circle cx="216.9" cy="180.3" r="2" fill="#e8a050" opacity="0.8"/>
<circle cx="200.1" cy="170.9" r="2" fill="#e8a050" opacity="0.8"/>
<circle cx="209.9" cy="149.4" r="2" fill="#e8a050" opacity="0.8"/>
<circle cx="191.5" cy="163.8" r="2" fill="#e8a050" opacity="0.8"/>
<circle cx="202.7" cy="150.1" r="2" fill="#e8a050" opacity="0.8"/>
<circle cx="200.9" cy="159.8" r="2" fill="#e8a050" opacity="0.8"/>
<circle cx="210.9" cy="140.0" r="2" fill="#e8a050" opacity="0.8"/>
<circle cx="210.4" cy="161.1" r="2" fill="#e8a050" opacity="0.8"/>
<circle cx="201.0" cy="171.0" r="2" fill="#e8a050" opacity="0.8"/>
<circle cx="216.7" cy="149.1" r="2" fill="#e8a050" opacity="0.8"/>
<circle cx="212.1" cy="156.2" r="2" fill="#e8a050" opacity="0.8"/>
<circle cx="208.2" cy="174.5" r="2" fill="#e8a050" opacity="0.8"/>
<circle cx="198.4" cy="166.5" r="2" fill="#e8a050" opacity="0.8"/>
<circle cx="205.5" cy="144.7" r="2" fill="#e8a050" opacity="0.8"/>
<circle cx="212.4" cy="150.2" r="2" fill="#e8a050" opacity="0.8"/>
<circle cx="199.5" cy="172.0" r="2" fill="#e8a050" opacity="0.8"/>
<circle cx="206.6" cy="136.5" r="2" fill="#e8a050" opacity="0.8"/>
<circle cx="226.8" cy="137.2" r="2" fill="#e8a050" opacity="0.8"/>
<circle cx="202.4" cy="155.2" r="2" fill="#e8a050" opacity="0.8"/>
<circle cx="202.1" cy="132.6" r="2" fill="#e8a050" opacity="0.8"/>
<circle cx="201.0" cy="165.8" r="2" fill="#e8a050" opacity="0.8"/>
<circle cx="202.1" cy="137.0" r="2" fill="#e8a050" opacity="0.8"/>
<circle cx="200.2" cy="170.6" r="2" fill="#e8a050" opacity="0.8"/>
<circle cx="214.9" cy="157.7" r="2" fill="#e8a050" opacity="0.8"/>
<circle cx="205.9" cy="168.4" r="2" fill="#e8e050" opacity="0.8"/>
<circle cx="205.0" cy="175.2" r="2" fill="#e8e050" opacity="0.8"/>
<circle cx="194.0" cy="181.7" r="2" fill="#e8e050" opacity="0.8"/>
<circle cx="176.9" cy="150.0" r="2" fill="#e8e050" opacity="0.8"/>
<circle cx="178.7" cy="144.4" r="2" fill="#e8e050" opacity="0.8"/>
<circle cx="204.7" cy="174.6" r="2" fill="#e8e050" opacity="0.8"/>
<circle cx="195.0" cy="174.9" r="2" fill="#e8e050" opacity="0.8"/>
<circle cx="190.5" cy="185.2" r="2" fill="#e8e050" opacity="0.8"/>
<circle cx="172.4" cy="135.3" r="2" fill="#e8e050" opacity="0.8"/>
<circle cx="173.7" cy="156.8" r="2" fill="#e8e050" opacity="0.8"/>
<circle cx="175.8" cy="140.6" r="2" fill="#e8e050" opacity="0.8"/>
<circle cx="193.3" cy="184.6" r="2" fill="#e8e050" opacity="0.8"/>
<circle cx="182.9" cy="174.2" r="2" fill="#e8e050" opacity="0.8"/>
<circle cx="194.3" cy="173.9" r="2" fill="#e8e050" opacity="0.8"/>
<circle cx="185.2" cy="185.5" r="2" fill="#e8e050" opacity="0.8"/>
<circle cx="198.0" cy="165.0" r="2" fill="#e8e050" opacity="0.8"/>
<circle cx="186.3" cy="168.1" r="2" fill="#e8e050" opacity="0.8"/>
<circle cx="182.4" cy="183.6" r="2" fill="#e8e050" opacity="0.8"/>
<circle cx="178.4" cy="182.1" r="2" fill="#e8e050" opacity="0.8"/>
<circle cx="185.8" cy="184.4" r="2" fill="#e8e050" opacity="0.8"/>
<circle cx="199.1" cy="180.5" r="2" fill="#e8e050" opacity="0.8"/>
<circle cx="178.1" cy="177.0" r="2" fill="#e8e050" opacity="0.8"/>
<circle cx="198.2" cy="180.7" r="2" fill="#e8e050" opacity="0.8"/>
<circle cx="182.3" cy="143.6" r="2" fill="#e8e050" opacity="0.8"/>
<circle cx="180.9" cy="156.2" r="2" fill="#e8e050" opacity="0.8"/>
<circle cx="182.7" cy="152.4" r="2" fill="#e8e050" opacity="0.8"/>
<circle cx="192.1" cy="154.3" r="2" fill="#e8e050" opacity="0.8"/>
<circle cx="173.6" cy="162.7" r="2" fill="#e8e050" opacity="0.8"/>
<circle cx="197.6" cy="167.6" r="2" fill="#e8e050" opacity="0.8"/>
<circle cx="176.4" cy="176.8" r="2" fill="#e8e050" opacity="0.8"/>
<circle cx="186.4" cy="165.5" r="2" fill="#e8e050" opacity="0.8"/>
<circle cx="179.6" cy="160.8" r="2" fill="#e8e050" opacity="0.8"/>
<circle cx="194.9" cy="169.4" r="2" fill="#e8e050" opacity="0.8"/>
<circle cx="172.8" cy="153.3" r="2" fill="#e8e050" opacity="0.8"/>
<circle cx="171.4" cy="144.4" r="2" fill="#e8e050" opacity="0.8"/>
<circle cx="189.0" cy="147.5" r="2" fill="#e8e050" opacity="0.8"/>
<circle cx="177.4" cy="136.8" r="2" fill="#e8e050" opacity="0.8"/>
<circle cx="187.1" cy="154.2" r="2" fill="#e8e050" opacity="0.8"/>
<circle cx="198.9" cy="154.2" r="2" fill="#e8e050" opacity="0.8"/>
<circle cx="206.6" cy="174.6" r="2" fill="#e8e050" opacity="0.8"/>
<circle cx="176.5" cy="159.0" r="2" fill="#e8e050" opacity="0.8"/>
<circle cx="186.8" cy="173.0" r="2" fill="#e8e050" opacity="0.8"/>
<circle cx="177.9" cy="171.9" r="2" fill="#e8e050" opacity="0.8"/>
<circle cx="178.5" cy="164.1" r="2" fill="#e8e050" opacity="0.8"/>
<circle cx="205.5" cy="180.7" r="2" fill="#e8e050" opacity="0.8"/>
<circle cx="180.4" cy="182.1" r="2" fill="#e8e050" opacity="0.8"/>
<circle cx="199.1" cy="170.3" r="2" fill="#e8e050" opacity="0.8"/>
<circle cx="191.4" cy="151.2" r="2" fill="#e8e050" opacity="0.8"/>
<circle cx="187.6" cy="145.6" r="2" fill="#e8e050" opacity="0.8"/>
<circle cx="191.6" cy="171.9" r="2" fill="#e8e050" opacity="0.8"/>
<circle cx="186.9" cy="184.9" r="2" fill="#e8e050" opacity="0.8"/>
<circle cx="191.4" cy="185.6" r="2" fill="#e8e050" opacity="0.8"/>
<circle cx="203.0" cy="174.9" r="2" fill="#e8e050" opacity="0.8"/>
<circle cx="180.6" cy="150.6" r="2" fill="#e8e050" opacity="0.8"/>
<circle cx="184.6" cy="181.3" r="2" fill="#e8e050" opacity="0.8"/>
<circle cx="178.2" cy="163.1" r="2" fill="#e8e050" opacity="0.8"/>
<circle cx="174.2" cy="157.3" r="2" fill="#e8e050" opacity="0.8"/>
<circle cx="181.9" cy="133.0" r="2" fill="#e8e050" opacity="0.8"/>
<circle cx="177.9" cy="144.7" r="2" fill="#e8e050" opacity="0.8"/>
<circle cx="175.6" cy="168.0" r="2" fill="#e8e050" opacity="0.8"/>
<circle cx="181.3" cy="170.0" r="2" fill="#e8e050" opacity="0.8"/>
<circle cx="190.6" cy="183.5" r="2" fill="#e8e050" opacity="0.8"/>
<circle cx="202.8" cy="174.8" r="2" fill="#e8e050" opacity="0.8"/>
<circle cx="192.5" cy="177.4" r="2" fill="#e8e050" opacity="0.8"/>
<circle cx="176.0" cy="132.1" r="2" fill="#e8e050" opacity="0.8"/>
<circle cx="181.2" cy="174.6" r="2" fill="#e8e050" opacity="0.8"/>
<circle cx="202.8" cy="170.5" r="2" fill="#e8e050" opacity="0.8"/>
<circle cx="174.7" cy="145.6" r="2" fill="#e8e050" opacity="0.8"/>
<circle cx="195.0" cy="160.1" r="2" fill="#e8e050" opacity="0.8"/>
<circle cx="185.0" cy="156.4" r="2" fill="#e8e050" opacity="0.8"/>
<circle cx="183.9" cy="150.4" r="2" fill="#e8e050" opacity="0.8"/>
<circle cx="185.1" cy="162.0" r="2" fill="#e8e050" opacity="0.8"/>
<circle cx="196.6" cy="161.4" r="2" fill="#e8e050" opacity="0.8"/>
<circle cx="180.4" cy="146.5" r="2" fill="#e8e050" opacity="0.8"/>
<circle cx="173.6" cy="142.9" r="2" fill="#e8e050" opacity="0.8"/>
<circle cx="192.4" cy="167.2" r="2" fill="#e8e050" opacity="0.8"/>
<circle cx="187.3" cy="152.3" r="2" fill="#e8e050" opacity="0.8"/>
<circle cx="175.5" cy="157.3" r="2" fill="#e8e050" opacity="0.8"/>
<circle cx="179.2" cy="158.7" r="2" fill="#e8e050" opacity="0.8"/>
<circle cx="179.4" cy="161.8" r="2" fill="#e8e050" opacity="0.8"/>
<circle cx="194.5" cy="160.3" r="2" fill="#e8e050" opacity="0.8"/>
<circle cx="183.3" cy="134.7" r="2" fill="#e8e050" opacity="0.8"/>
<circle cx="182.2" cy="142.3" r="2" fill="#e8e050" opacity="0.8"/>
<circle cx="180.0" cy="164.1" r="2" fill="#e8e050" opacity="0.8"/>
<circle cx="180.5" cy="157.8" r="2" fill="#e8e050" opacity="0.8"/>
<circle cx="183.8" cy="185.6" r="2" fill="#e8e050" opacity="0.8"/>
<circle cx="196.1" cy="164.0" r="2" fill="#e8e050" opacity="0.8"/>
<circle cx="200.4" cy="170.5" r="2" fill="#e8e050" opacity="0.8"/>
<circle cx="190.9" cy="177.3" r="2" fill="#50b8e8" opacity="0.8"/>
<circle cx="188.3" cy="171.0" r="2" fill="#50b8e8" opacity="0.8"/>
<circle cx="192.3" cy="176.6" r="2" fill="#50b8e8" opacity="0.8"/>
<circle cx="192.0" cy="178.6" r="2" fill="#50b8e8" opacity="0.8"/>
<circle cx="156.9" cy="156.0" r="2" fill="#50b8e8" opacity="0.8"/>
<circle cx="177.1" cy="182.1" r="2" fill="#50b8e8" opacity="0.8"/>
<circle cx="170.4" cy="179.2" r="2" fill="#50b8e8" opacity="0.8"/>
<circle cx="158.7" cy="177.7" r="2" fill="#50b8e8" opacity="0.8"/>
<circle cx="191.4" cy="172.7" r="2" fill="#50b8e8" opacity="0.8"/>
<circle cx="157.0" cy="158.1" r="2" fill="#50b8e8" opacity="0.8"/>
<circle cx="184.5" cy="176.6" r="2" fill="#50b8e8" opacity="0.8"/>
<circle cx="189.5" cy="179.7" r="2" fill="#50b8e8" opacity="0.8"/>
<circle cx="174.0" cy="190.7" r="2" fill="#50b8e8" opacity="0.8"/>
<circle cx="158.0" cy="173.8" r="2" fill="#50b8e8" opacity="0.8"/>
<circle cx="163.0" cy="172.0" r="2" fill="#50b8e8" opacity="0.8"/>
<circle cx="166.3" cy="180.8" r="2" fill="#50b8e8" opacity="0.8"/>
<circle cx="182.6" cy="173.5" r="2" fill="#50b8e8" opacity="0.8"/>
<circle cx="174.9" cy="190.6" r="2" fill="#50b8e8" opacity="0.8"/>
<circle cx="152.2" cy="171.0" r="2" fill="#50b8e8" opacity="0.8"/>
<circle cx="149.4" cy="165.4" r="2" fill="#50b8e8" opacity="0.8"/>
<circle cx="157.0" cy="174.9" r="2" fill="#50b8e8" opacity="0.8"/>
<circle cx="167.1" cy="167.2" r="2" fill="#50b8e8" opacity="0.8"/>
<circle cx="147.4" cy="152.2" r="2" fill="#50b8e8" opacity="0.8"/>
<circle cx="177.5" cy="162.1" r="2" fill="#50b8e8" opacity="0.8"/>
<circle cx="168.4" cy="188.8" r="2" fill="#50b8e8" opacity="0.8"/>
<circle cx="175.5" cy="174.4" r="2" fill="#50b8e8" opacity="0.8"/>
<circle cx="165.7" cy="156.7" r="2" fill="#50b8e8" opacity="0.8"/>
<circle cx="170.0" cy="192.1" r="2" fill="#50b8e8" opacity="0.8"/>
<circle cx="177.3" cy="170.2" r="2" fill="#50b8e8" opacity="0.8"/>
<circle cx="164.2" cy="167.7" r="2" fill="#50b8e8" opacity="0.8"/>
<circle cx="165.2" cy="156.0" r="2" fill="#50b8e8" opacity="0.8"/>
<circle cx="188.4" cy="181.9" r="2" fill="#50b8e8" opacity="0.8"/>
<circle cx="169.2" cy="163.8" r="2" fill="#50b8e8" opacity="0.8"/>
<circle cx="193.2" cy="177.5" r="2" fill="#50b8e8" opacity="0.8"/>
<circle cx="152.9" cy="154.4" r="2" fill="#50b8e8" opacity="0.8"/>
<circle cx="190.6" cy="176.4" r="2" fill="#50b8e8" opacity="0.8"/>
<circle cx="154.4" cy="153.9" r="2" fill="#50b8e8" opacity="0.8"/>
<circle cx="171.6" cy="179.2" r="2" fill="#50b8e8" opacity="0.8"/>
<circle cx="170.9" cy="185.8" r="2" fill="#50b8e8" opacity="0.8"/>
<circle cx="178.2" cy="193.1" r="2" fill="#50b8e8" opacity="0.8"/>
<circle cx="191.7" cy="171.3" r="2" fill="#50b8e8" opacity="0.8"/>
<circle cx="181.3" cy="190.6" r="2" fill="#50b8e8" opacity="0.8"/>
<circle cx="163.8" cy="163.5" r="2" fill="#50b8e8" opacity="0.8"/>
<circle cx="159.5" cy="160.6" r="2" fill="#50b8e8" opacity="0.8"/>
<circle cx="186.8" cy="185.3" r="2" fill="#50b8e8" opacity="0.8"/>
<circle cx="152.1" cy="171.8" r="2" fill="#50b8e8" opacity="0.8"/>
<circle cx="156.7" cy="175.7" r="2" fill="#50b8e8" opacity="0.8"/>
<circle cx="172.6" cy="187.1" r="2" fill="#50b8e8" opacity="0.8"/>
<circle cx="163.1" cy="176.9" r="2" fill="#50b8e8" opacity="0.8"/>
<circle cx="185.4" cy="187.2" r="2" fill="#50b8e8" opacity="0.8"/>
<circle cx="188.0" cy="168.4" r="2" fill="#50b8e8" opacity="0.8"/>
<circle cx="167.7" cy="158.2" r="2" fill="#50b8e8" opacity="0.8"/>
<circle cx="162.8" cy="182.9" r="2" fill="#50b8e8" opacity="0.8"/>
<circle cx="183.9" cy="171.5" r="2" fill="#50b8e8" opacity="0.8"/>
<circle cx="173.4" cy="196.0" r="2" fill="#50b8e8" opacity="0.8"/>
<circle cx="160.3" cy="153.0" r="2" fill="#50b8e8" opacity="0.8"/>
<circle cx="173.6" cy="166.0" r="2" fill="#50b8e8" opacity="0.8"/>
<circle cx="152.4" cy="161.3" r="2" fill="#50b8e8" opacity="0.8"/>
<circle cx="182.5" cy="192.7" r="2" fill="#50b8e8" opacity="0.8"/>
<circle cx="196.1" cy="179.1" r="2" fill="#50b8e8" opacity="0.8"/>
<circle cx="173.2" cy="159.8" r="2" fill="#50b8e8" opacity="0.8"/>
<circle cx="158.4" cy="171.4" r="2" fill="#50b8e8" opacity="0.8"/>
<circle cx="169.3" cy="158.0" r="2" fill="#50b8e8" opacity="0.8"/>
<circle cx="159.3" cy="164.8" r="2" fill="#50b8e8" opacity="0.8"/>
<circle cx="186.2" cy="171.8" r="2" fill="#50b8e8" opacity="0.8"/>
<circle cx="149.7" cy="158.7" r="2" fill="#50b8e8" opacity="0.8"/>
<circle cx="188.1" cy="167.6" r="2" fill="#50b8e8" opacity="0.8"/>
<circle cx="176.7" cy="183.9" r="2" fill="#50b8e8" opacity="0.8"/>
<circle cx="163.3" cy="182.0" r="2" fill="#50b8e8" opacity="0.8"/>
<circle cx="176.4" cy="174.9" r="2" fill="#50b8e8" opacity="0.8"/>
<circle cx="175.1" cy="178.2" r="2" fill="#50b8e8" opacity="0.8"/>
<circle cx="175.9" cy="193.8" r="2" fill="#50b8e8" opacity="0.8"/>
<circle cx="146.9" cy="155.0" r="2" fill="#50b8e8" opacity="0.8"/>
<circle cx="192.4" cy="172.1" r="2" fill="#50b8e8" opacity="0.8"/>
<circle cx="162.3" cy="153.7" r="2" fill="#50b8e8" opacity="0.8"/>
<circle cx="187.2" cy="183.9" r="2" fill="#50b8e8" opacity="0.8"/>
<circle cx="163.8" cy="164.3" r="2" fill="#50b8e8" opacity="0.8"/>
<circle cx="176.6" cy="192.1" r="2" fill="#50b8e8" opacity="0.8"/>
<circle cx="176.8" cy="164.3" r="2" fill="#50b8e8" opacity="0.8"/>
<circle cx="175.2" cy="186.4" r="2" fill="#50b8e8" opacity="0.8"/>
<circle cx="171.6" cy="184.9" r="2" fill="#50b8e8" opacity="0.8"/>
<circle cx="193.5" cy="180.1" r="2" fill="#50b8e8" opacity="0.8"/>
<circle cx="187.9" cy="181.3" r="2" fill="#50b8e8" opacity="0.8"/>
<circle cx="186.9" cy="188.6" r="2" fill="#50b8e8" opacity="0.8"/>
<circle cx="178.9" cy="170.4" r="2" fill="#50b8e8" opacity="0.8"/>
<circle cx="174.7" cy="196.3" r="2" fill="#50b8e8" opacity="0.8"/>
<circle cx="158.7" cy="166.0" r="2" fill="#50b8e8" opacity="0.8"/>
<circle cx="156.0" cy="151.5" r="2" fill="#50b8e8" opacity="0.8"/>
<circle cx="176.0" cy="170.3" r="2" fill="#a050e8" opacity="0.8"/>
<circle cx="166.8" cy="150.0" r="2" fill="#a050e8" opacity="0.8"/>
<circle cx="177.7" cy="185.5" r="2" fill="#a050e8" opacity="0.8"/>
<circle cx="176.0" cy="168.0" r="2" fill="#a050e8" opacity="0.8"/>
<circle cx="164.2" cy="152.6" r="2" fill="#a050e8" opacity="0.8"/>
<circle cx="188.6" cy="173.8" r="2" fill="#a050e8" opacity="0.8"/>
<circle cx="195.7" cy="175.6" r="2" fill="#a050e8" opacity="0.8"/>
<circle cx="179.2" cy="182.7" r="2" fill="#a050e8" opacity="0.8"/>
<circle cx="195.1" cy="176.8" r="2" fill="#a050e8" opacity="0.8"/>
<circle cx="170.7" cy="178.5" r="2" fill="#a050e8" opacity="0.8"/>
<circle cx="169.8" cy="160.1" r="2" fill="#a050e8" opacity="0.8"/>
<circle cx="166.9" cy="165.4" r="2" fill="#a050e8" opacity="0.8"/>
<circle cx="187.8" cy="184.7" r="2" fill="#a050e8" opacity="0.8"/>
<circle cx="193.4" cy="181.4" r="2" fill="#a050e8" opacity="0.8"/>
<circle cx="171.4" cy="169.8" r="2" fill="#a050e8" opacity="0.8"/>
<circle cx="164.3" cy="150.1" r="2" fill="#a050e8" opacity="0.8"/>
<circle cx="181.8" cy="169.5" r="2" fill="#a050e8" opacity="0.8"/>
<circle cx="162.7" cy="157.6" r="2" fill="#a050e8" opacity="0.8"/>
<circle cx="178.0" cy="156.4" r="2" fill="#a050e8" opacity="0.8"/>
<circle cx="187.1" cy="184.0" r="2" fill="#a050e8" opacity="0.8"/>
<circle cx="175.3" cy="157.4" r="2" fill="#a050e8" opacity="0.8"/>
<circle cx="197.3" cy="180.3" r="2" fill="#a050e8" opacity="0.8"/>
<circle cx="163.0" cy="151.3" r="2" fill="#a050e8" opacity="0.8"/>
<circle cx="180.4" cy="170.0" r="2" fill="#a050e8" opacity="0.8"/>
<circle cx="177.9" cy="179.2" r="2" fill="#a050e8" opacity="0.8"/>
<circle cx="177.0" cy="155.2" r="2" fill="#a050e8" opacity="0.8"/>
<circle cx="182.0" cy="166.4" r="2" fill="#a050e8" opacity="0.8"/>
<circle cx="188.1" cy="186.3" r="2" fill="#a050e8" opacity="0.8"/>
<circle cx="187.6" cy="168.9" r="2" fill="#a050e8" opacity="0.8"/>
<circle cx="177.7" cy="163.0" r="2" fill="#a050e8" opacity="0.8"/>
<circle cx="182.5" cy="195.1" r="2" fill="#a050e8" opacity="0.8"/>
<circle cx="170.3" cy="164.3" r="2" fill="#a050e8" opacity="0.8"/>
<circle cx="191.6" cy="189.1" r="2" fill="#a050e8" opacity="0.8"/>
<circle cx="178.2" cy="165.2" r="2" fill="#a050e8" opacity="0.8"/>
<circle cx="182.8" cy="180.4" r="2" fill="#a050e8" opacity="0.8"/>
<circle cx="165.8" cy="166.0" r="2" fill="#a050e8" opacity="0.8"/>
<circle cx="193.9" cy="185.1" r="2" fill="#a050e8" opacity="0.8"/>
<circle cx="192.3" cy="174.8" r="2" fill="#a050e8" opacity="0.8"/>
<circle cx="174.3" cy="163.8" r="2" fill="#a050e8" opacity="0.8"/>
<circle cx="165.4" cy="163.0" r="2" fill="#a050e8" opacity="0.8"/>
<circle cx="181.8" cy="160.5" r="2" fill="#a050e8" opacity="0.8"/>
<circle cx="183.1" cy="170.7" r="2" fill="#a050e8" opacity="0.8"/>
<circle cx="191.0" cy="178.3" r="2" fill="#a050e8" opacity="0.8"/>
<circle cx="166.7" cy="157.4" r="2" fill="#a050e8" opacity="0.8"/>
<circle cx="161.8" cy="158.9" r="2" fill="#a050e8" opacity="0.8"/>
<circle cx="193.2" cy="183.2" r="2" fill="#a050e8" opacity="0.8"/>
<circle cx="188.0" cy="168.6" r="2" fill="#a050e8" opacity="0.8"/>
<circle cx="164.8" cy="147.6" r="2" fill="#a050e8" opacity="0.8"/>
<circle cx="176.3" cy="167.7" r="2" fill="#a050e8" opacity="0.8"/>
<circle cx="164.9" cy="150.7" r="2" fill="#a050e8" opacity="0.8"/>
<circle cx="183.4" cy="190.8" r="2" fill="#a050e8" opacity="0.8"/>
<circle cx="170.9" cy="156.5" r="2" fill="#a050e8" opacity="0.8"/>
<circle cx="182.1" cy="175.3" r="2" fill="#a050e8" opacity="0.8"/>
<circle cx="163.9" cy="153.6" r="2" fill="#a050e8" opacity="0.8"/>
<circle cx="190.1" cy="187.7" r="2" fill="#a050e8" opacity="0.8"/>
<circle cx="172.3" cy="163.6" r="2" fill="#a050e8" opacity="0.8"/>
<circle cx="166.8" cy="150.9" r="2" fill="#a050e8" opacity="0.8"/>
<circle cx="184.5" cy="193.1" r="2" fill="#a050e8" opacity="0.8"/>
<circle cx="189.1" cy="184.2" r="2" fill="#a050e8" opacity="0.8"/>
<circle cx="184.9" cy="190.8" r="2" fill="#a050e8" opacity="0.8"/>
<circle cx="166.6" cy="167.2" r="2" fill="#a050e8" opacity="0.8"/>
<circle cx="180.4" cy="189.8" r="2" fill="#a050e8" opacity="0.8"/>
<circle cx="168.3" cy="167.9" r="2" fill="#a050e8" opacity="0.8"/>
<circle cx="170.1" cy="166.0" r="2" fill="#a050e8" opacity="0.8"/>
<circle cx="182.8" cy="184.7" r="2" fill="#a050e8" opacity="0.8"/>
<circle cx="168.3" cy="155.3" r="2" fill="#a050e8" opacity="0.8"/>
<circle cx="186.9" cy="190.5" r="2" fill="#a050e8" opacity="0.8"/>
<circle cx="190.0" cy="176.4" r="2" fill="#a050e8" opacity="0.8"/>
<circle cx="197.6" cy="182.1" r="2" fill="#a050e8" opacity="0.8"/>
<circle cx="171.5" cy="159.5" r="2" fill="#a050e8" opacity="0.8"/>
<circle cx="186.2" cy="175.1" r="2" fill="#a050e8" opacity="0.8"/>
<circle cx="165.8" cy="154.9" r="2" fill="#a050e8" opacity="0.8"/>
<circle cx="166.4" cy="152.6" r="2" fill="#a050e8" opacity="0.8"/>
<circle cx="173.0" cy="158.0" r="2" fill="#a050e8" opacity="0.8"/>
<circle cx="185.5" cy="188.1" r="2" fill="#a050e8" opacity="0.8"/>
<circle cx="177.6" cy="155.4" r="2" fill="#a050e8" opacity="0.8"/>
<circle cx="191.4" cy="171.4" r="2" fill="#a050e8" opacity="0.8"/>
<circle cx="165.0" cy="151.9" r="2" fill="#a050e8" opacity="0.8"/>
<circle cx="167.2" cy="156.2" r="2" fill="#a050e8" opacity="0.8"/>
<circle cx="179.3" cy="161.6" r="2" fill="#a050e8" opacity="0.8"/>
<circle cx="169.0" cy="148.6" r="2" fill="#a050e8" opacity="0.8"/>
<circle cx="171.5" cy="169.5" r="2" fill="#a050e8" opacity="0.8"/>
<circle cx="189.3" cy="174.8" r="2" fill="#a050e8" opacity="0.8"/>
<circle cx="174.3" cy="151.6" r="2" fill="#a050e8" opacity="0.8"/>
<circle cx="192.9" cy="176.1" r="2" fill="#a050e8" opacity="0.8"/>
<circle cx="170.1" cy="173.4" r="2" fill="#a050e8" opacity="0.8"/>
<circle cx="170.5" cy="161.7" r="2" fill="#a050e8" opacity="0.8"/>
<circle cx="186.2" cy="177.7" r="2" fill="#a050e8" opacity="0.8"/>
<circle cx="203.5" cy="188.8" r="2.5" fill="#f0d040" opacity="0.8"/>
<circle cx="198.5" cy="194.1" r="2.5" fill="#f0d040" opacity="0.8"/>
<circle cx="201.4" cy="187.7" r="2.5" fill="#f0d040" opacity="0.8"/>
<circle cx="196.7" cy="184.8" r="2.5" fill="#f0d040" opacity="0.8"/>
<circle cx="198.6" cy="190.0" r="2.5" fill="#f0d040" opacity="0.8"/>
<circle cx="204.9" cy="185.9" r="2.5" fill="#f0d040" opacity="0.8"/>
<circle cx="203.0" cy="188.3" r="2.5" fill="#f0d040" opacity="0.8"/>
<circle cx="198.3" cy="190.7" r="2.5" fill="#f0d040" opacity="0.8"/>
<circle cx="201.0" cy="184.3" r="2.5" fill="#f0d040" opacity="0.8"/>
<circle cx="202.5" cy="187.9" r="2.5" fill="#f0d040" opacity="0.8"/>
<circle cx="192.4" cy="192.0" r="2.5" fill="#f0d040" opacity="0.8"/>
<circle cx="200.2" cy="190.9" r="2.5" fill="#f0d040" opacity="0.8"/>
<circle cx="203.1" cy="187.4" r="2.5" fill="#f0d040" opacity="0.8"/>
<circle cx="203.2" cy="188.3" r="2.5" fill="#f0d040" opacity="0.8"/>
<circle cx="200.0" cy="190.9" r="2.5" fill="#f0d040" opacity="0.8"/>
<circle cx="206.2" cy="190.8" r="2.5" fill="#f0d040" opacity="0.8"/>
<circle cx="193.1" cy="193.1" r="2.5" fill="#f0d040" opacity="0.8"/>
<circle cx="202.7" cy="188.5" r="2.5" fill="#f0d040" opacity="0.8"/>
<circle cx="198.5" cy="190.0" r="2.5" fill="#f0d040" opacity="0.8"/>
<circle cx="200.2" cy="189.2" r="2.5" fill="#f0d040" opacity="0.8"/>
<circle cx="203.8" cy="194.5" r="2.5" fill="#f0d040" opacity="0.8"/>
<circle cx="194.0" cy="192.2" r="2.5" fill="#f0d040" opacity="0.8"/>
<circle cx="199.3" cy="190.2" r="2.5" fill="#f0d040" opacity="0.8"/>
<circle cx="194.5" cy="190.7" r="2.5" fill="#f0d040" opacity="0.8"/>
<circle cx="202.2" cy="190.7" r="2.5" fill="#f0d040" opacity="0.8"/>
<circle cx="200.1" cy="195.4" r="2.5" fill="#f0d040" opacity="0.8"/>
<circle cx="199.6" cy="190.3" r="2.5" fill="#f0d040" opacity="0.8"/>
<circle cx="194.1" cy="191.4" r="2.5" fill="#f0d040" opacity="0.8"/>
<circle cx="203.6" cy="195.5" r="2.5" fill="#f0d040" opacity="0.8"/>
<circle cx="198.5" cy="193.3" r="2.5" fill="#f0d040" opacity="0.8"/>
<circle cx="196.6" cy="193.7" r="2.5" fill="#f0d040" opacity="0.8"/>
<circle cx="203.3" cy="193.0" r="2.5" fill="#f0d040" opacity="0.8"/>
<circle cx="206.6" cy="191.0" r="2.5" fill="#f0d040" opacity="0.8"/>
<circle cx="199.0" cy="191.3" r="2.5" fill="#f0d040" opacity="0.8"/>
<circle cx="199.8" cy="188.5" r="2.5" fill="#f0d040" opacity="0.8"/>
<circle cx="202.0" cy="192.2" r="2.5" fill="#f0d040" opacity="0.8"/>
<circle cx="200.5" cy="190.4" r="2.5" fill="#f0d040" opacity="0.8"/>
<circle cx="200.5" cy="194.2" r="2.5" fill="#f0d040" opacity="0.8"/>
<circle cx="198.6" cy="190.3" r="2.5" fill="#f0d040" opacity="0.8"/>
<circle cx="202.4" cy="196.6" r="2.5" fill="#f0d040" opacity="0.8"/>
<circle cx="192.8" cy="187.8" r="2.5" fill="#f0d040" opacity="0.8"/>
<circle cx="207.1" cy="192.9" r="2.5" fill="#f0d040" opacity="0.8"/>
<circle cx="203.9" cy="192.9" r="2.5" fill="#f0d040" opacity="0.8"/>
<circle cx="200.6" cy="191.6" r="2.5" fill="#f0d040" opacity="0.8"/>
<circle cx="193.2" cy="191.2" r="2.5" fill="#f0d040" opacity="0.8"/>
<circle cx="196.5" cy="188.6" r="2.5" fill="#f0d040" opacity="0.8"/>
<circle cx="205.8" cy="191.1" r="2.5" fill="#f0d040" opacity="0.8"/>
<circle cx="200.5" cy="187.8" r="2.5" fill="#f0d040" opacity="0.8"/>
<circle cx="200.1" cy="189.6" r="2.5" fill="#f0d040" opacity="0.8"/>
<circle cx="197.5" cy="187.7" r="2.5" fill="#f0d040" opacity="0.8"/>
<circle cx="201.3" cy="191.4" r="2.5" fill="#f0d040" opacity="0.8"/>
<circle cx="203.9" cy="197.0" r="2.5" fill="#f0d040" opacity="0.8"/>
<circle cx="198.4" cy="193.6" r="2.5" fill="#f0d040" opacity="0.8"/>
<circle cx="201.5" cy="188.7" r="2.5" fill="#f0d040" opacity="0.8"/>
<circle cx="202.6" cy="191.9" r="2.5" fill="#f0d040" opacity="0.8"/>
<circle cx="200.8" cy="191.0" r="2.5" fill="#f0d040" opacity="0.8"/>
<circle cx="205.1" cy="185.6" r="2.5" fill="#f0d040" opacity="0.8"/>
<circle cx="198.9" cy="197.4" r="2.5" fill="#f0d040" opacity="0.8"/>
<circle cx="206.1" cy="193.1" r="2.5" fill="#f0d040" opacity="0.8"/>
<circle cx="195.8" cy="186.0" r="2.5" fill="#f0d040" opacity="0.8"/>
</svg>