<svg xmlns="http://www.w3.org/2000/svg" width="400" height="400" viewBox="0 0 400 400">
<rect width="400" height="400" fill="#1a1a2e"/>
<circle cx="184.9" cy="247.1" r="2" fill="#e85050" opacity="0.8"/>
<circle cx="180.6" cy="224.1" r="2" fill="#e85050" opacity="0.8"/>
<circle cx="200.8" cy="262.5" r="2" fill="#e85050" opacity="0.8"/>
<circle cx="184.5" cy="233.9" r="2" fill="#e85050" opacity="0.8"/>
<circle cx="196.9" cy="257.6" r="2" fill="#e85050" opacity="0.8"/>
<circle cx="183.8" cy="215.7" r="2" fill="#e85050" opacity="0.8"/>
<circle cx="188.7" cy="212.0" r="2" fill="#e85050" opacity="0.8"/>
<circle cx="222.0" cy="234.2" r="2" fill="#e85050" opacity="0.8"/>
<circle cx="173.0" cy="247.2" r="2" fill="#e85050" opacity="0.8"/>
<circle cx="176.4" cy="234.5" r="2" fill="#e85050" opacity="0.8"/>
<circle cx="197.7" cy="255.2" r="2" fill="#e85050" opacity="0.8"/>
<circle cx="196.8" cy="230.2" r="2" fill="#e85050" opacity="0.8"/>
<circle cx="217.2" cy="236.5" r="2" fill="#e85050" opacity="0.8"/>
<circle cx="190.0" cy="239.9" r="2" fill="#e85050" opacity="0.8"/>
<circle cx="185.1" cy="224.0" r="2" fill="#e85050" opacity="0.8"/>
<circle cx="209.0" cy="222.5" r="2" fill="#e85050" opacity="0.8"/>
<circle cx="171.4" cy="223.3" r="2" fill="#e85050" opacity="0.8"/>
<circle cx="178.1" cy="233.8" r="2" fill="#e85050" opacity="0.8"/>
<circle cx="189.1" cy="229.0" r="2" fill="#e85050" opacity="0.8"/>
<circle cx="202.9" cy="263.1" r="2" fill="#e85050" opacity="0.8"/>
<circle cx="212.9" cy="227.8" r="2" fill="#e85050" opacity="0.8"/>
<circle cx="202.8" cy="212.0" r="2" fill="#e85050" opacity="0.8"/>
<circle cx="193.6" cy="243.8" r="2" fill="#e85050" opacity="0.8"/>
<circle cx="215.8" cy="228.1" r="2" fill="#e85050" opacity="0.8"/>
<circle cx="219.9" cy="211.4" r="2" fill="#e85050" opacity="0.8"/>
<circle cx="192.3" cy="240.8" r="2" fill="#e85050" opacity="0.8"/>
<circle cx="200.4" cy="216.0" r="2" fill="#e85050" opacity="0.8"/>
<circle cx="174.6" cy="233.4" r="2" fill="#e85050" opacity="0.8"/>
<circle cx="185.0" cy="249.2" r="2" fill="#e85050" opacity="0.8"/>
<circle cx="226.6" cy="242.7" r="2" fill="#e85050" opacity="0.8"/>
<circle cx="196.2" cy="229.8" r="2" fill="#e85050" opacity="0.8"/>
<circle cx="197.9" cy="259.0" r="2" fill="#e85050" opacity="0.8"/>
<circle cx="223.4" cy="250.8" r="2" fill="#e85050" opacity="0.8"/>
<circle cx="203.7" cy="247.5" r="2" fill="#e85050" opacity="0.8"/>
<circle cx="202.0" cy="252.9" r="2" fill="#e85050" opacity="0.8"/>
<circle cx="190.0" cy="219.7" r="2" fill="#e85050" opacity="0.8"/>
<circle cx="196.6" cy="219.9" r="2" fill="#e85050" opacity="0.8"/>
<circle cx="209.8" cy="236.3" r="2" fill="#e85050" opacity="0.8"/>
<circle cx="199.3" cy="204.0" r="2" fill="#e85050" opacity="0.8"/>
<circle cx="168.6" cy="229.2" r="2" fill="#e85050" opacity="0.8"/>
<circle cx="192.8" cy="244.9" r="2" fill="#e85050" opacity="0.8"/>
<circle cx="227.9" cy="228.6" r="2" fill="#e85050" opacity="0.8"/>
<circle cx="195.4" cy="208.0" r="2" fill="#e85050" opacity="0.8"/>
<circle cx="194.3" cy="218.7" r="2" fill="#e85050" opacity="0.8"/>
<circle cx="191.4" cy="215.6" r="2" fill="#e85050" opacity="0.8"/>
<circle cx="227.9" cy="245.5" r="2" fill="#e85050" opacity="0.8"/>
<circle cx="198.6" cy="201.1" r="2" fill="#e85050" opacity="0.8"/>
<circle cx="202.1" cy="252.6" r="2" fill="#e85050" opacity="0.8"/>
<circle cx="193.6" cy="208.1" r="2" fill="#e85050" opacity="0.8"/>
<circle cx="220.0" cy="208.2" r="2" fill="#e85050" opacity="0.8"/>
<circle cx="172.9" cy="225.1" r="2" fill="#e85050" opacity="0.8"/>
<circle cx="189.5" cy="238.2" r="2" fill="#e85050" opacity="0.8"/>
<circle cx="192.7" cy="216.2" r="2" fill="#e85050" opacity="0.8"/>
<circle cx="207.5" cy="220.1" r="2" fill="#e85050" opacity="0.8"/>
<circle cx="186.2" cy="213.1" r="2" fill="#e85050" opacity="0.8"/>
<circle cx="200.9" cy="242.4" r="2" fill="#e85050" opacity="0.8"/>
<circle cx="176.1" cy="250.2" r="2" fill="#e85050" opacity="0.8"/>
<circle cx="182.2" cy="222.9" r="2" fill="#e85050" opacity="0.8"/>
<circle cx="178.8" cy="219.1" r="2" fill="#e85050" opacity="0.8"/>
<circle cx="201.1" cy="237.7" r="2" fill="#e85050" opacity="0.8"/>
<circle cx="191.4" cy="231.3" r="2" fill="#e85050" opacity="0.8"/>
<circle cx="192.9" cy="218.8" r="2" fill="#e85050" opacity="0.8"/>
<circle cx="195.5" cy="226.1" r="2" fill="#e85050" opacity="0.8"/>
<circle cx="190.6" cy="220.6" r="2" fill="#e85050" opacity="0.8"/>
<circle cx="214.7" cy="207.0" r="2" fill="#e85050" opacity="0.8"/>
<circle cx="168.6" cy="226.2" r="2" fill="#e85050" opacity="0.8"/>
<circle cx="202.3" cy="222.5" r="2" fill="#e85050" opacity="0.8"/>
<circle cx="223.7" cy="212.3" r="2" fill="#e85050" opacity="0.8"/>
<circle cx="182.9" cy="250.8" r="2" fill="#e85050" opacity="0.8"/>
<circle cx="180.6" cy="232.6" r="2" fill="#e85050" opacity="0.8"/>
<circle cx="220.0" cy="255.8" r="2" fill="#e85050" opacity="0.8"/>
<circle cx="211.2" cy="240.2" r="2" fill="#e85050" opacity="0.8"/>
<circle cx="170.6" cy="223.6" r="2" fill="#e85050" opacity="0.8"/>
<circle cx="179.2" cy="234.7" r="2" fill="#e85050" opacity="0.8"/>
<circle cx="178.0" cy="232.3" r="2" fill="#e85050" opacity="0.8"/>
<circle cx="184.0" cy="250.8" r="2" fill="#e85050" opacity="0.8"/>
<circle cx="189.6" cy="213.9" r="2" fill="#e85050" opacity="0.8"/>
<circle cx="194.5" cy="247.7" r="2" fill="#e85050" opacity="0.8"/>
<circle cx="204.8" cy="261.3" r="2" fill="#e85050" opacity="0.8"/>
<circle cx="208.8" cy="228.9" r="2" fill="#e85050" opacity="0.8"/>
<circle cx="199.5" cy="260.0" r="2" fill="#e85050" opacity="0.8"/>
<circle cx="173.5" cy="229.4" r="2" fill="#e85050" opacity="0.8"/>
<circle cx="177.7" cy="248.2" r="2" fill="#e85050" opacity="0.8"/>
<circle cx="206.8" cy="236.6" r="2" fill="#e85050" opacity="0.8"/>
<circle cx="192.9" cy="222.0" r="2" fill="#e85050" opacity="0.8"/>
<circle cx="220.2" cy="214.2" r="2" fill="#e85050" opacity="0.8"/>
<circle cx="209.6" cy="230.8" r="2" fill="#e85050" opacity="0.8"/>
<circle cx="171.6" cy="232.6" r="2" fill="#e85050" opacity="0.8"/>
<circle cx="211.2" cy="240.3" r="2" fill="#e85050" opacity="0.8"/>
<circle cx="219.3" cy="209.7" r="2" fill="#e85050" opacity="0.8"/>
<circle cx="232.7" cy="194.6" r="2" fill="#e8a050" opacity="0.8"/>
<circle cx="259.4" cy="216.9" r="2" fill="#e8a050" opacity="0.8"/>
<circle cx="205.5" cy="192.0" r="2" fill="#e8a050" opacity="0.8"/>
<circle cx="223.2" cy="207.6" r="2" fill="#e8a050" opacity="0.8"/>
<circle cx="220.0" cy="214.5" r="2" fill="#e8a050" opacity="0.8"/>
<circle cx="258.3" cy="195.7" r="2" fill="#e8a050" opacity="0.8"/>
<circle cx="256.7" cy="214.8" r="2" fill="#e8a050" opacity="0.8"/>
<circle cx="218.2" cy="198.1" r="2" fill="#e8a050" opacity="0.8"/>
<circle cx="200.8" cy="202.4" r="2" fill="#e8a050" opacity="0.8"/>
<circle cx="246.2" cy="189.5" r="2" fill="#e8a050" opacity="0.8"/>
<circle cx="228.1" cy="183.3" r="2" fill="#e8a050" opacity="0.8"/>
<circle cx="257.6" cy="222.0" r="2" fill="#e8a050" opacity="0.8"/>
<circle cx="236.9" cy="186.0" r="2" fill="#e8a050" opacity="0.8"/>
<circle cx="230.2" cy="206.6" r="2" fill="#e8a050" opacity="0.8"/>
<circle cx="225.6" cy="205.3" r="2" fill="#e8a050" opacity="0.8"/>
<circle cx="242.1" cy="208.1" r="2" fill="#e8a050" opacity="0.8"/>
<circle cx="230.5" cy="234.8" r="2" fill="#e8a050" opacity="0.8"/>
<circle cx="253.2" cy="196.7" r="2" fill="#e8a050" opacity="0.8"/>
<circle cx="257.8" cy="223.3" r="2" fill="#e8a050" opacity="0.8"/>
<circle cx="204.2" cy="205.3" r="2" fill="#e8a050" opacity="0.8"/>
<circle cx="221.3" cy="218.3" r="2" fill="#e8a050" opacity="0.8"/>
<circle cx="218.9" cy="219.1" r="2" fill="#e8a050" opacity="0.8"/>
<circle cx="246.6" cy="186.7" r="2" fill="#e8a050" opacity="0.8"/>
<circle cx="252.2" cy="193.4" r="2" fill="#e8a050" opacity="0.8"/>
<circle cx="208.4" cy="204.4" r="2" fill="#e8a050" opacity="0.8"/>
<circle cx="199.4" cy="213.5" r="2" fill="#e8a050" opacity="0.8"/>
<circle cx="213.8" cy="209.3" r="2" fill="#e8a050" opacity="0.8"/>
<circle cx="248.9" cy="200.9" r="2" fill="#e8a050" opacity="0.8"/>
<circle cx="213.4" cy="209.1" r="2" fill="#e8a050" opacity="0.8"/>
<circle cx="250.6" cy="208.1" r="2" fill="#e8a050" opacity="0.8"/>
<circle cx="236.0" cy="191.4" r="2" fill="#e8a050" opacity="0.8"/>
<circle cx="244.8" cy="230.1" r="2" fill="#e8a050" opacity="0.8"/>
<circle cx="216.2" cy="194.6" r="2" fill="#e8a050" opacity="0.8"/>
<circle cx="211.8" cy="211.9" r="2" fill="#e8a050" opacity="0.8"/>
<circle cx="217.2" cy="197.3" r="2" fill="#e8a050" opacity="0.8"/>
<circle cx="209.4" cy="196.0" r="2" fill="#e8a050" opacity="0.8"/>
<circle cx="215.1" cy="230.1" r="2" fill="#e8a050" opacity="0.8"/>
<circle cx="230.3" cy="217.3" r="2" fill="#e8a050" opacity="0.8"/>
<circle cx="232.5" cy="181.5" r="2" fill="#e8a050" opacity="0.8"/>
<circle cx="220.0" cy="193.3" r="2" fill="#e8a050" opacity="0.8"/>
<circle cx="252.0" cy="215.2" r="2" fill="#e8a050" opacity="0.8"/>
<circle cx="216.0" cy="230.1" r="2" fill="#e8a050" opacity="0.8"/>
<circle cx="207.3" cy="210.0" r="2" fill="#e8a050" opacity="0.8"/>
<circle cx="235.7" cy="231.8" r="2" fill="#e8a050" opacity="0.8"/>
<circle cx="207.1" cy="188.8" r="2" fill="#e8a050" opacity="0.8"/>
<circle cx="238.2" cy="239.6" r="2" fill="#e8a050" opacity="0.8"/>
<circle cx="254.0" cy="214.2" r="2" fill="#e8a050" opacity="0.8"/>
<circle cx="236.2" cy="193.7" r="2" fill="#e8a050" opacity="0.8"/>
<circle cx="240.2" cy="227.4" r="2" fill="#e8a050" opacity="0.8"/>
<circle cx="235.5" cy="200.4" r="2" fill="#e8a050" opacity="0.8"/>
<circle cx="211.1" cy="210.2" r="2" fill="#e8a050" opacity="0.8"/>
<circle cx="237.6" cy="205.4" r="2" fill="#e8a050" opacity="0.8"/>
<circle cx="220.1" cy="194.5" r="2" fill="#e8a050" opacity="0.8"/>
<circle cx="221.0" cy="207.7" r="2" fill="#e8a050" opacity="0.8"/>
<circle cx="227.6" cy="219.8" r="2" fill="#e8a050" opacity="0.8"/>
<circle cx="249.3" cy="197.4" r="2" fill="#e8a050" opacity="0.8"/>
<circle cx="252.1" cy="221.2" r="2" fill="#e8a050" opacity="0.8"/>
<circle cx="222.7" cy="219.7" r="2" fill="#e8a050" opacity="0.8"/>
<circle cx="207.6" cy="206.5" r="2" fill="#e8a050" opacity="0.8"/>
<circle cx="252.9" cy="208.6" r="2" fill="#e8a050" opacity="0.8"/>
<circle cx="221.7" cy="240.3" r="2" fill="#e8a050" opacity="0.8"/>
<circle cx="258.1" cy="215.5" r="2" fill="#e8a050" opacity="0.8"/>
<circle cx="216.9" cy="189.1" r="2" fill="#e8a050" opacity="0.8"/>
<circle cx="221.0" cy="210.4" r="2" fill="#e8a050" opacity="0.8"/>
<circle cx="227.8" cy="180.3" r="2" fill="#e8a050" opacity="0.8"/>
<circle cx="249.5" cy="203.2" r="2" fill="#e8a050" opacity="0.8"/>
<circle cx="241.2" cy="224.2" r="2" fill="#e8a050" opacity="0.8"/>
<circle cx="229.5" cy="204.8" r="2" fill="#e8a050" opacity="0.8"/>
<circle cx="233.7" cy="229.9" r="2" fill="#e8a050" opacity="0.8"/>
<circle cx="248.2" cy="204.8" r="2" fill="#e8a050" opacity="0.8"/>
<circle cx="205.2" cy="223.3" r="2" fill="#e8a050" opacity="0.8"/>
<circle cx="247.0" cy="224.9" r="2" fill="#e8a050" opacity="0.8"/>
<circle cx="251.1" cy="226.0" r="2" fill="#e8a050" opacity="0.8"/>
<circle cx="215.5" cy="220.7" r="2" fill="#e8a050" opacity="0.8"/>
<circle cx="239.6" cy="194.3" r="2" fill="#e8a050" opacity="0.8"/>
<circle cx="256.1" cy="194.7" r="2" fill="#e8a050" opacity="0.8"/>
<circle cx="213.8" cy="233.8" r="2" fill="#e8a050" opacity="0.8"/>
<circle cx="208.9" cy="214.5" r="2" fill="#e8a050" opacity="0.8"/>
<circle cx="247.2" cy="195.7" r="2" fill="#e8a050" opacity="0.8"/>
<circle cx="243.3" cy="195.8" r="2" fill="#e8a050" opacity="0.8"/>
<circle cx="218.8" cy="198.0" r="2" fill="#e8a050" opacity="0.8"/>
<circle cx="221.1" cy="216.3" r="2" fill="#e8a050" opacity="0.8"/>
<circle cx="255.3" cy="212.1" r="2" fill="#e8a050" opacity="0.8"/>
<circle cx="212.8" cy="216.2" r="2" fill="#e8a050" opacity="0.8"/>
<circle cx="223.7" cy="209.4" r="2" fill="#e8a050" opacity="0.8"/>
<circle cx="218.9" cy="183.3" r="2" fill="#e8a050" opacity="0.8"/>
<circle cx="242.1" cy="226.3" r="2" fill="#e8a050" opacity="0.8"/>
<circle cx="208.6" cy="218.5" r="2" fill="#e8a050" opacity="0.8"/>
<circle cx="245.2" cy="187.1" r="2" fill="#e8a050" opacity="0.8"/>
<circle cx="224.2" cy="211.3" r="2" fill="#e8a050" opacity="0.8"/>
<circle cx="203.2" cy="170.4" r="2" fill="#e8e050" opacity="0.8"/>
<circle cx="202.4" cy="182.9" r="2" fill="#e8e050" opacity="0.8"/>
<circle cx="216.4" cy="187.1" r="2" fill="#e8e050" opacity="0.8"/>
<circle cx="193.9" cy="172.5" r="2" fill="#e8e050" opacity="0.8"/>
<circle cx="211.1" cy="185.1" r="2" fill="#e8e050" opacity="0.8"/>
<circle cx="191.4" cy="179.5" r="2" fill="#e8e050" opacity="0.8"/>
<circle cx="192.5" cy="196.0" r="2" fill="#e8e050" opacity="0.8"/>
<circle cx="194.6" cy="167.2" r="2" fill="#e8e050" opacity="0.8"/>
<circle cx="205.4" cy="194.3" r="2" fill="#e8e050" opacity="0.8"/>
<circle cx="214.2" cy="199.3" r="2" fill="#e8e050" opacity="0.8"/>
<circle cx="188.8" cy="182.9" r="2" fill="#e8e050" opacity="0.8"/>
<circle cx="219.3" cy="177.2" r="2" fill="#e8e050" opacity="0.8"/>
<circle cx="186.5" cy="193.1" r="2" fill="#e8e050" opacity="0.8"/>
<circle cx="205.9" cy="194.8" r="2" fill="#e8e050" opacity="0.8"/>
<circle cx="211.9" cy="175.9" r="2" fill="#e8e050" opacity="0.8"/>
<circle cx="200.8" cy="194.5" r="2" fill="#e8e050" opacity="0.8"/>
<circle cx="207.6" cy="200.6" r="2" fill="#e8e050" opacity="0.8"/>
<circle cx="207.9" cy="165.7" r="2" fill="#e8e050" opacity="0.8"/>
<circle cx="196.1" cy="193.9" r="2" fill="#e8e050" opacity="0.8"/>
<circle cx="204.1" cy="173.4" r="2" fill="#e8e050" opacity="0.8"/>
<circle cx="211.6" cy="178.7" r="2" fill="#e8e050" opacity="0.8"/>
<circle cx="207.4" cy="180.1" r="2" fill="#e8e050" opacity="0.8"/>
<circle cx="202.1" cy="168.6" r="2" fill="#e8e050" opacity="0.8"/>
<circle cx="190.8" cy="184.2" r="2" fill="#e8e050" opacity="0.8"/>
<circle cx="184.8" cy="183.6" r="2" fill="#e8e050" opacity="0.8"/>
<circle cx="193.3" cy="192.1" r="2" fill="#e8e050" opacity="0.8"/>
<circle cx="187.5" cy="191.1" r="2" fill="#e8e050" opacity="0.8"/>
<circle cx="217.5" cy="193.5" r="2" fill="#e8e050" opacity="0.8"/>
<circle cx="192.7" cy="186.6" r="2" fill="#e8e050" opacity="0.8"/>
<circle cx="213.0" cy="169.5" r="2" fill="#e8e050" opacity="0.8"/>
<circle cx="214.9" cy="172.7" r="2" fill="#e8e050" opacity="0.8"/>
<circle cx="191.9" cy="180.2" r="2" fill="#e8e050" opacity="0.8"/>
<circle cx="193.2" cy="185.5" r="2" fill="#e8e050" opacity="0.8"/>
<circle cx="221.0" cy="184.0" r="2" fill="#e8e050" opacity="0.8"/>
<circle cx="192.0" cy="176.5" r="2" fill="#e8e050" opacity="0.8"/>
<circle cx="215.4" cy="177.7" r="2" fill="#e8e050" opacity="0.8"/>
<circle cx="215.4" cy="181.8" r="2" fill="#e8e050" opacity="0.8"/>
<circle cx="205.3" cy="179.0" r="2" fill="#e8e050" opacity="0.8"/>
<circle cx="195.4" cy="181.9" r="2" fill="#e8e050" opacity="0.8"/>
<circle cx="191.7" cy="197.5" r="2" fill="#e8e050" opacity="0.8"/>
<circle cx="207.9" cy="175.7" r="2" fill="#e8e050" opacity="0.8"/>
<circle cx="202.7" cy="190.2" r="2" fill="#e8e050" opacity="0.8"/>
<circle cx="196.1" cy="171.1" r="2" fill="#e8e050" opacity="0.8"/>
<circle cx="190.9" cy="177.3" r="2" fill="#e8e050" opacity="0.8"/>
<circle cx="204.5" cy="198.8" r="2" fill="#e8e050" opacity="0.8"/>
<circle cx="210.2" cy="191.9" r="2" fill="#e8e050" opacity="0.8"/>
<circle cx="213.6" cy="188.9" r="2" fill="#e8e050" opacity="0.8"/>
<circle cx="218.8" cy="181.1" r="2" fill="#e8e050" opacity="0.8"/>
<circle cx="195.2" cy="183.2" r="2" fill="#e8e050" opacity="0.8"/>
<circle cx="218.0" cy="173.9" r="2" fill="#e8e050" opacity="0.8"/>
<circle cx="217.9" cy="190.8" r="2" fill="#e8e050" opacity="0.8"/>
<circle cx="217.5" cy="179.9" r="2" fill="#e8e050" opacity="0.8"/>
<circle cx="208.6" cy="201.4" r="2" fill="#e8e050" opacity="0.8"/>
<circle cx="186.6" cy="191.4" r="2" fill="#e8e050" opacity="0.8"/>
<circle cx="209.5" cy="189.4" r="2" fill="#e8e050" opacity="0.8"/>
<circle cx="208.7" cy="174.4" r="2" fill="#e8e050" opacity="0.8"/>
<circle cx="217.8" cy="181.8" r="2" fill="#e8e050" opacity="0.8"/>
<circle cx="192.6" cy="168.3" r="2" fill="#e8e050" opacity="0.8"/>
<circle cx="197.9" cy="184.6" r="2" fill="#e8e050" opacity="0.8"/>
<circle cx="193.7" cy="185.4" r="2" fill="#e8e050" opacity="0.8"/>
<circle cx="202.6" cy="196.4" r="2" fill="#e8e050" opacity="0.8"/>
<circle cx="200.8" cy="176.8" r="2" fill="#e8e050" opacity="0.8"/>
<circle cx="205.0" cy="193.1" r="2" fill="#e8e050" opacity="0.8"/>
<circle cx="221.7" cy="180.7" r="2" fill="#e8e050" opacity="0.8"/>
<circle cx="190.5" cy="181.4" r="2" fill="#e8e050" opacity="0.8"/>
<circle cx="203.1" cy="177.0" r="2" fill="#e8e050" opacity="0.8"/>
<circle cx="197.0" cy="167.3" r="2" fill="#e8e050" opacity="0.8"/>
<circle cx="213.3" cy="188.7" r="2" fill="#e8e050" opacity="0.8"/>
<circle cx="192.0" cy="178.5" r="2" fill="#e8e050" opacity="0.8"/>
<circle cx="194.8" cy="179.1" r="2" fill="#e8e050" opacity="0.8"/>
<circle cx="195.8" cy="187.3" r="2" fill="#e8e050" opacity="0.8"/>
<circle cx="192.4" cy="185.1" r="2" fill="#e8e050" opacity="0.8"/>
<circle cx="193.5" cy="189.6" r="2" fill="#e8e050" opacity="0.8"/>
<circle cx="206.6" cy="178.3" r="2" fill="#e8e050" opacity="0.8"/>
<circle cx="191.0" cy="176.7" r="2" fill="#e8e050" opacity="0.8"/>
<circle cx="190.6" cy="179.5" r="2" fill="#e8e050" opacity="0.8"/>
<circle cx="203.6" cy="174.7" r="2" fill="#e8e050" opacity="0.8"/>
<circle cx="198.7" cy="184.7" r="2" fill="#e8e050" opacity="0.8"/>
<circle cx="207.1" cy="176.4" r="2" fill="#e8e050" opacity="0.8"/>
<circle cx="210.1" cy="201.8" r="2" fill="#e8e050" opacity="0.8"/>
<circle cx="217.8" cy="180.9" r="2" fill="#e8e050" opacity="0.8"/>
<circle cx="196.9" cy="175.8" r="2" fill="#e8e050" opacity="0.8"/>
<circle cx="202.0" cy="184.2" r="2" fill="#e8e050" opacity="0.8"/>
<circle cx="207.3" cy="176.3" r="2" fill="#e8e050" opacity="0.8"/>
<circle cx="220.7" cy="183.0" r="2" fill="#e8e050" opacity="0.8"/>
<circle cx="185.2" cy="177.6" r="2" fill="#e8e050" opacity="0.8"/>
<circle cx="211.0" cy="177.6" r="2" fill="#e8e050" opacity="0.8"/>
<circle cx="212.6" cy="168.1" r="2" fill="#e8e050" opacity="0.8"/>
<circle cx="199.7" cy="196.1" r="2" fill="#e8e050" opacity="0.8"/>
<circle cx="189.7" cy="170.6" r="2" fill="#e8e050" opacity="0.8"/>
<circle cx="183.3" cy="182.4" r="2" fill="#50b8e8" opacity="0.8"/>
<circle cx="168.3" cy="187.4" r="2" fill="#50b8e8" opacity="0.8"/>
<circle cx="170.0" cy="199.6" r="2" fill="#50b8e8" opacity="0.8"/>
<circle cx="186.7" cy="210.7" r="2" fill="#50b8e8" opacity="0.8"/>
<circle cx="186.7" cy="182.5" r="2" fill="#50b8e8" opacity="0.8"/>
<circle cx="183.5" cy="204.6" r="2" fill="#50b8e8" opacity="0.8"/>
<circle cx="177.0" cy="199.5" r="2" fill="#50b8e8" opacity="0.8"/>
<circle cx="190.1" cy="186.6" r="2" fill="#50b8e8" opacity="0.8"/>
<circle cx="189.2" cy="174.5" r="2" fill="#50b8e8" opacity="0.8"/>
<circle cx="177.5" cy="189.1" r="2" fill="#50b8e8" opacity="0.8"/>
<circle cx="198.5" cy="181.4" r="2" fill="#50b8e8" opacity="0.8"/>
<circle cx="181.9" cy="182.5" r="2" fill="#50b8e8" opacity="0.8"/>
<circle cx="187.6" cy="191.9" r="2" fill="#50b8e8" opacity="0.8"/>
<circle cx="192.8" cy="196.1" r="2" fill="#50b8e8" opacity="0.8"/>
<circle cx="197.0" cy="205.6" r="2" fill="#50b8e8" opacity="0.8"/>
<circle cx="194.8" cy="193.8" r="2" fill="#50b8e8" opacity="0.8"/>
<circle cx="185.4" cy="189.3" r="2" fill="#50b8e8" opacity="0.8"/>
<circle cx="196.8" cy="188.3" r="2" fill="#50b8e8" opacity="0.8"/>
<circle cx="199.9" cy="197.6" r="2" fill="#50b8e8" opacity="0.8"/>
<circle cx="191.4" cy="210.1" r="2" fill="#50b8e8" opacity="0.8"/>
<circle cx="185.9" cy="197.4" r="2" fill="#50b8e8" opacity="0.8"/>
<circle cx="183.3" cy="202.4" r="2" fill="#50b8e8" opacity="0.8"/>
<circle cx="188.7" cy="184.1" r="2" fill="#50b8e8" opacity="0.8"/>
<circle cx="181.9" cy="207.0" r="2" fill="#50b8e8" opacity="0.8"/>
<circle cx="198.0" cy="181.1" r="2" fill="#50b8e8" opacity="0.8"/>
<circle cx="170.2" cy="190.1" r="2" fill="#50b8e8" opacity="0.8"/>
<circle cx="182.1" cy="189.6" r="2" fill="#50b8e8" opacity="0.8"/>
<circle cx="194.5" cy="204.5" r="2" fill="#50b8e8" opacity="0.8"/>
<circle cx="186.5" cy="186.6" r="2" fill="#50b8e8" opacity="0.8"/>
<circle cx="199.6" cy="191.4" r="2" fill="#50b8e8" opacity="0.8"/>
<circle cx="191.9" cy="176.5" r="2" fill="#50b8e8" opacity="0.8"/>
<circle cx="199.4" cy="184.9" r="2" fill="#50b8e8" opacity="0.8"/>
<circle cx="186.2" cy="192.5" r="2" fill="#50b8e8" opacity="0.8"/>
<circle cx="191.2" cy="196.2" r="2" fill="#50b8e8" opacity="0.8"/>
<circle cx="202.5" cy="187.9" r="2" fill="#50b8e8" opacity="0.8"/>
<circle cx="185.4" cy="190.7" r="2" fill="#50b8e8" opacity="0.8"/>
<circle cx="180.8" cy="203.4" r="2" fill="#50b8e8" opacity="0.8"/>
<circle cx="188.2" cy="210.7" r="2" fill="#50b8e8" opacity="0.8"/>
<circle cx="199.5" cy="181.0" r="2" fill="#50b8e8" opacity="0.8"/>
<circle cx="189.9" cy="194.6" r="2" fill="#50b8e8" opacity="0.8"/>
<circle cx="189.3" cy="201.0" r="2" fill="#50b8e8" opacity="0.8"/>
<circle cx="182.6" cy="203.8" r="2" fill="#50b8e8" opacity="0.8"/>
<circle cx="171.7" cy="193.2" r="2" fill="#50b8e8" opacity="0.8"/>
<circle cx="192.9" cy="185.9" r="2" fill="#50b8e8" opacity="0.8"/>
<circle cx="193.1" cy="209.9" r="2" fill="#50b8e8" opacity="0.8"/>
<circle cx="195.0" cy="190.8" r="2" fill="#50b8e8" opacity="0.8"/>
<circle cx="170.4" cy="184.7" r="2" fill="#50b8e8" opacity="0.8"/>
<circle cx="192.1" cy="204.5" r="2" fill="#50b8e8" opacity="0.8"/>
<circle cx="175.5" cy="201.8" r="2" fill="#50b8e8" opacity="0.8"/>
<circle cx="197.4" cy="184.2" r="2" fill="#50b8e8" opacity="0.8"/>
<circle cx="204.7" cy="194.7" r="2" fill="#50b8e8" opacity="0.8"/>
<circle cx="170.0" cy="202.4" r="2" fill="#50b8e8" opacity="0.8"/>
<circle cx="193.8" cy="202.8" r="2" fill="#50b8e8" opacity="0.8"/>
<circle cx="182.6" cy="196.9" r="2" fill="#50b8e8" opacity="0.8"/>
<circle cx="198.7" cy="181.7" r="2" fill="#50b8e8" opacity="0.8"/>
<circle cx="200.6" cy="199.2" r="2" fill="#50b8e8" opacity="0.8"/>
<circle cx="184.0" cy="184.7" r="2" fill="#50b8e8" opacity="0.8"/>
<circle cx="178.0" cy="209.5" r="2" fill="#50b8e8" opacity="0.8"/>
<circle cx="201.4" cy="187.4" r="2" fill="#50b8e8" opacity="0.8"/>
<circle cx="194.5" cy="209.0" r="2" fill="#50b8e8" opacity="0.8"/>
<circle cx="177.1" cy="187.5" r="2" fill="#50b8e8" opacity="0.8"/>
<circle cx="204.2" cy="195.1" r="2" fill="#50b8e8" opacity="0.8"/>
<circle cx="188.2" cy="178.0" r="2" fill="#50b8e8" opacity="0.8"/>
<circle cx="176.6" cy="178.8" r="2" fill="#50b8e8" opacity="0.8"/>
<circle cx="177.1" cy="194.1" r="2" fill="#50b8e8" opacity="0.8"/>
<circle cx="174.1" cy="182.6" r="2" fill="#50b8e8" opacity="0.8"/>
<circle cx="171.0" cy="199.5" r="2" fill="#50b8e8" opacity="0.8"/>
<circle cx="204.1" cy="190.3" r="2" fill="#50b8e8" opacity="0.8"/>
<circle cx="179.6" cy="210.1" r="2" fill="#50b8e8" opacity="0.8"/>
<circle cx="187.0" cy="197.7" r="2" fill="#50b8e8" opacity="0.8"/>
<circle cx="202.5" cy="189.1" r="2" fill="#50b8e8" opacity="0.8"/>
<circle cx="202.5" cy="195.2" r="2" fill="#50b8e8" opacity="0.8"/>
<circle cx="174.4" cy="178.0" r="2" fill="#50b8e8" opacity="0.8"/>
<circle cx="189.2" cy="178.2" r="2" fill="#50b8e8" opacity="0.8"/>
<circle cx="184.3" cy="185.7" r="2" fill="#50b8e8" opacity="0.8"/>
<circle cx="181.1" cy="173.9" r="2" fill="#50b8e8" opacity="0.8"/>
<circle cx="203.2" cy="199.7" r="2" fill="#50b8e8" opacity="0.8"/>
<circle cx="192.8" cy="184.8" r="2" fill="#50b8e8" opacity="0.8"/>
<circle cx="200.6" cy="186.2" r="2" fill="#50b8e8" opacity="0.8"/>
<circle cx="184.5" cy="195.7" r="2" fill="#50b8e8" opacity="0.8"/>
<circle cx="197.4" cy="197.0" r="2" fill="#50b8e8" opacity="0.8"/>
<circle cx="192.1" cy="209.1" r="2" fill="#50b8e8" opacity="0.8"/>
<circle cx="184.4" cy="209.6" r="2" fill="#50b8e8" opacity="0.8"/>
<circle cx="181.8" cy="186.4" r="2" fill="#50b8e8" opacity="0.8"/>
<circle cx="187.9" cy="202.9" r="2" fill="#50b8e8" opacity="0.8"/>
<circle cx="195.7" cy="182.3" r="2" fill="#50b8e8" opacity="0.8"/>
<circle cx="181.0" cy="174.2" r="2" fill="#50b8e8" opacity="0.8"/>
<circle cx="198.8" cy="202.0" r="2" fill="#50b8e8" opacity="0.8"/>
<circle cx="199.3" cy="179.4" r="2" fill="#50b8e8" opacity="0.8"/>
<circle cx="178.4" cy="175.6" r="2" fill="#50b8e8" opacity="0.8"/>
<circle cx="196.6" cy="197.8" r="2" fill="#a050e8" opacity="0.8"/>
<circle cx="202.3" cy="203.3" r="2" fill="#a050e8" opacity="0.8"/>
<circle cx="203.8" cy="200.5" r="2" fill="#a050e8" opacity="0.8"/>
<circle cx="190.6" cy="202.5" r="2" fill="#a050e8" opacity="0.8"/>
<circle cx="202.0" cy="203.0" r="2" fill="#a050e8" opacity="0.8"/>
<circle cx="196.5" cy="211.1" r="2" fill="#a050e8" opacity="0.8"/>
<circle cx="195.6" cy="204.9" r="2" fill="#a050e8" opacity="0.8"/>
<circle cx="190.5" cy="204.1" r="2" fill="#a050e8" opacity="0.8"/>
<circle cx="197.3" cy="205.0" r="2" fill="#a050e8" opacity="0.8"/>
<circle cx="191.7" cy="205.5" r="2" fill="#a050e8" opacity="0.8"/>
<circle cx="202.7" cy="205.7" r="2" fill="#a050e8" opacity="0.8"/>
<circle cx="200.6" cy="207.7" r="2" fill="#a050e8" opacity="0.8"/>
<circle cx="202.6" cy="208.0" r="2" fill="#a050e8" opacity="0.8"/>
<circle cx="199.5" cy="214.0" r="2" fill="#a050e8" opacity="0.8"/>
<circle cx="195.6" cy="201.0" r="2" fill="#a050e8" opacity="0.8"/>
<circle cx="188.3" cy="204.1" r="2" fill="#a050e8" opacity="0.8"/>
<circle cx="203.8" cy="203.8" r="2" fill="#a050e8" opacity="0.8"/>
<circle cx="196.7" cy="205.6" r="2" fill="#a050e8" opacity="0.8"/>
<circle cx="201.4" cy="205.2" r="2" fill="#a050e8" opacity="0.8"/>
<circle cx="194.4" cy="203.4" r="2" fill="#a050e8" opacity="0.8"/>
<circle cx="195.7" cy="205.2" r="2" fill="#a050e8" opacity="0.8"/>
<circle cx="201.0" cy="205.8" r="2" fill="#a050e8" opacity="0.8"/>
<circle cx="204.4" cy="204.3" r="2" fill="#a050e8" opacity="0.8"/>
<circle cx="190.6" cy="206.6" r="2" fill="#a050e8" opacity="0.8"/>
<circle cx="205.1" cy="211.4" r="2" fill="#a050e8" opacity="0.8"/>
<circle cx="191.6" cy="207.1" r="2" fill="#a050e8" opacity="0.8"/>
<circle cx="189.7" cy="207.9" r="2" fill="#a050e8" opacity="0.8"/>
<circle cx="204.1" cy="200.9" r="2" fill="#a050e8" opacity="0.8"/>
<circle cx="195.9" cy="208.4" r="2" fill="#a050e8" opacity="0.8"/>
<circle cx="196.7" cy="212.4" r="2" fill="#a050e8" opacity="0.8"/>
<circle cx="199.0" cy="206.6" r="2" fill="#a050e8" opacity="0.8"/>
<circle cx="199.4" cy="207.6" r="2" fill="#a050e8" opacity="0.8"/>
<circle cx="191.1" cy="202.8" r="2" fill="#a050e8" opacity="0.8"/>
<circle cx="206.6" cy="208.3" r="2" fill="#a050e8" opacity="0.8"/>
<circle cx="200.2" cy="200.1" r="2" fill="#a050e8" opacity="0.8"/>
<circle cx="190.5" cy="200.7" r="2" fill="#a050e8" opacity="0.8"/>
<circle cx="190.5" cy="209.0" r="2" fill="#a050e8" opacity="0.8"/>
<circle cx="189.6" cy="203.4" r="2" fill="#a050e8" opacity="0.8"/>
<circle cx="196.6" cy="202.0" r="2" fill="#a050e8" opacity="0.8"/>
<circle cx="194.5" cy="200.2" r="2" fill="#a050e8" opacity="0.8"/>
<circle cx="193.0" cy="200.7" r="2" fill="#a050e8" opacity="0.8"/>
<circle cx="194.1" cy="199.8" r="2" fill="#a050e8" opacity="0.8"/>
<circle cx="199.6" cy="205.8" r="2" fill="#a050e8" opacity="0.8"/>
<circle cx="190.9" cy="201.6" r="2" fill="#a050e8" opacity="0.8"/>
<circle cx="197.3" cy="199.3" r="2" fill="#a050e8" opacity="0.8"/>
<circle cx="203.4" cy="212.7" r="2" fill="#a050e8" opacity="0.8"/>
<circle cx="202.1" cy="209.1" r="2" fill="#a050e8" opacity="0.8"/>
<circle cx="199.7" cy="201.8" r="2" fill="#a050e8" opacity="0.8"/>
<circle cx="203.2" cy="204.2" r="2" fill="#a050e8" opacity="0.8"/>
<circle cx="195.5" cy="206.6" r="2" fill="#a050e8" opacity="0.8"/>
<circle cx="198.8" cy="212.5" r="2" fill="#a050e8" opacity="0.8"/>
<circle cx="204.6" cy="211.9" r="2" fill="#a050e8" opacity="0.8"/>
<circle cx="189.7" cy="200.8" r="2" fill="#a050e8" opacity="0.8"/>
<circle cx="205.2" cy="208.3" r="2" fill="#a050e8" opacity="0.8"/>
<circle cx="192.4" cy="205.9" r="2" fill="#a050e8" opacity="0.8"/>
<circle cx="195.7" cy="212.4" r="2" fill="#a050e8" opacity="0.8"/>
<circle cx="198.2" cy="201.5" r="2" fill="#a050e8" opacity="0.8"/>
<circle cx="191.7" cy="208.4" r="2" fill="#a050e8" opacity="0.8"/>
<circle cx="196.4" cy="202.7" r="2" fill="#a050e8" opacity="0.8"/>
<circle cx="205.3" cy="205.5" r="2" fill="#a050e8" opacity="0.8"/>
<circle cx="196.7" cy="199.0" r="2" fill="#a050e8" opacity="0.8"/>
<circle cx="194.6" cy="209.2" r="2" fill="#a050e8" opacity="0.8"/>
<circle cx="189.3" cy="204.9" r="2" fill="#a050e8" opacity="0.8"/>
<circle cx="192.2" cy="204.6" r="2" fill="#a050e8" opacity="0.8"/>
<circle cx="192.1" cy="206.4" r="2" fill="#a050e8" opacity="0.8"/>
<circle cx="205.2" cy="208.0" r="2" fill="#a050e8" opacity="0.8"/>
<circle cx="193.8" cy="199.3" r="2" fill="#a050e8" opacity="0.8"/>
<circle cx="192.1" cy="205.2" r="2" fill="#a050e8" opacity="0.8"/>
<circle cx="200.5" cy="206.3" r="2" fill="#a050e8" opacity="0.8"/>
<circle cx="193.7" cy="212.1" r="2" fill="#a050e8" opacity="0.8"/>
<circle cx="190.9" cy="207.5" r="2" fill="#a050e8" opacity="0.8"/>
<circle cx="192.9" cy="212.4" r="2" fill="#a050e8" opacity="0.8"/>
<circle cx="197.9" cy="210.4" r="2" fill="#a050e8" opacity="0.8"/>
<circle cx="191.9" cy="199.6" r="2" fill="#a050e8" opacity="0.8"/>
<circle cx="192.8" cy="202.2" r="2" fill="#a050e8" opacity="0.8"/>
<circle cx="196.1" cy="202.4" r="2" fill="#a050e8" opacity="0.8"/>
<circle cx="196.4" cy="203.1" r="2" fill="#a050e8" opacity="0.8"/>
<circle cx="202.9" cy="210.9" r="2" fill="#a050e8" opacity="0.8"/>
<circle cx="190.6" cy="201.5" r="2" fill="#a050e8" opacity="0.8"/>
<circle cx="195.1" cy="212.6" r="2" fill="#a050e8" opacity="0.8"/>
<circle cx="195.0" cy="211.0" r="2" fill="#a050e8" opacity="0.8"/>
<circle cx="189.9" cy="200.9" r="2" fill="#a050e8" opacity="0.8"/>
<circle cx="192.3" cy="203.0" r="2" fill="#a050e8" opacity="0.8"/>
<circle cx="195.5" cy="200.7" r="2" fill="#a050e8" opacity="0.8"/>
<circle cx="196.5" cy="199.1" r="2" fill="#a050e8" opacity="0.8"/>
<circle cx="191.0" cy="208.3" r="2" fill="#a050e8" opacity="0.8"/>
<circle cx="203.4" cy="205.2" r="2" fill="#a050e8" opacity="0.8"/>
<circle cx="203.6" cy="206.9" r="2" fill="#a050e8" opacity="0.8"/>
<circle cx="197.0" cy="207.2" r="2" fill="#a050e8" opacity="0.8"/>
<circle cx="189.6" cy="203.2" r="2" fill="#a050e8" opacity="0.8"/>
<circle cx="200.8" cy="200.5" r="2.5" fill="#f0d040" opacity="0.8"/>
<circle cx="196.4" cy="197.5" r="2.5" fill="#f0d040" opacity="0.8"/>
<circle cx="195.0" cy="200.8" r="2.5" fill="#f0d040" opacity="0.8"/>
<circle cx="203.7" cy="201.9" r="2.5" fill="#f0d040" opacity="0.8"/>
<circle cx="195.5" cy="198.3" r="2.5" fill="#f0d040" opacity="0.8"/>
<circle cx="197.0" cy="201.4" r="2.5" fill="#f0d040" opacity="0.8"/>
<circle cx="200.5" cy="202.3" r="2.5" fill="#f0d040" opacity="0.8"/>
<circle cx="203.2" cy="199.6" r="2.5" fill="#f0d040" opacity="0.8"/>
<circle cx="196.2" cy="198.9" r="2.5" fill="#f0d040" opacity="0.8"/>
<circle cx="198.0" cy="196.2" r="2.5" fill="#f0d040" opacity="0.8"/>
<circle cx="198.9" cy="195.0" r="2.5" fill="#f0d040" opacity="0.8"/>
<circle cx="197.7" cy="203.9" r="2.5" fill="#f0d040" opacity="0.8"/>
<circle cx="196.3" cy="202.8" r="2.5" fill="#f0d040" opacity="0.8"/>
<circle cx="199.6" cy="197.2" r="2.5" fill="#f0d040" opacity="0.8"/>
<circle cx="196.9" cy="202.6" r="2.5" fill="#f0d040" opacity="0.8"/>
<circle cx="198.9" cy="203.8" r="2.5" fill="#f0d040" opacity="0.8"/>
<circle cx="201.1" cy="195.3" r="2.5" fill="#f0d040" opacity="0.8"/>
<circle cx="199.1" cy="196.3" r="2.5" fill="#f0d040" opacity="0.8"/>
<circle cx="196.5" cy="202.5" r="2.5" fill="#f0d040" opacity="0.8"/>
<circle cx="198.6" cy="195.1" r="2.5" fill="#f0d040" opacity="0.8"/>
<circle cx="196.3" cy="200.5" r="2.5" fill="#f0d040" opacity="0.8"/>
<circle cx="199.2" cy="195.0" r="2.5" fill="#f0d040" opacity="0.8"/>
<circle cx="202.1" cy="202.7" r="2.5" fill="#f0d040" opacity="0.8"/>
<circle cx="199.6" cy="202.8" r="2.5" fill="#f0d040" opacity="0.8"/>
<circle cx="202.4" cy="202.3" r="2.5" fill="#f0d040" opacity="0.8"/>
<circle cx="203.1" cy="199.0" r="2.5" fill="#f0d040" opacity="0.8"/>
<circle cx="197.2" cy="204.2" r="2.5" fill="#f0d040" opacity="0.8"/>
<circle cx="195.2" cy="200.9" r="2.5" fill="#f0d040" opacity="0.8"/>
<circle cx="204.3" cy="202.0" r="2.5" fill="#f0d040" opacity="0.8"/>
<circle cx="196.1" cy="201.4" r="2.5" fill="#f0d040" opacity="0.8"/>
<circle cx="202.3" cy="196.1" r="2.5" fill="#f0d040" opacity="0.8"/>
<circle cx="199.8" cy="196.3" r="2.5" fill="#f0d040" opacity="0.8"/>
<circle cx="202.5" cy="197.8" r="2.5" fill="#f0d040" opacity="0.8"/>
<circle cx="198.4" cy="197.3" r="2.5" fill="#f0d040" opacity="0.8"/>
<circle cx="203.4" cy="201.6" r="2.5" fill="#f0d040" opacity="0.8"/>
<circle cx="201.3" cy="197.0" r="2.5" fill="#f0d040" opacity="0.8"/>
<circle cx="201.1" cy="200.0" r="2.5" fill="#f0d040" opacity="0.8"/>
<circle cx="200.2" cy="201.7" r="2.5" fill="#f0d040" opacity="0.8"/>
<circle cx="197.2" cy="201.2" r="2.5" fill="#f0d040" opacity="0.8"/>
<circle cx="200.5" cy="201.2" r="2.5" fill="#f0d040" opacity="0.8"/>
<circle cx="200.9" cy="197.8" r="2.5" fill="#f0d040" opacity="0.8"/>
<circle cx="195.5" cy="202.0" r="2.5" fill="#f0d040" opacity="0.8"/>
<circle cx="203.7" cy="197.3" r="2.5" fill="#f0d040" opacity="0.8"/>
<circle cx="197.5" cy="201.7" r="2.5" fill="#f0d040" opacity="0.8"/>
<circle cx="201.3" cy="195.2" r="2.5" fill="#f0d040" opacity="0.8"/>
<circle cx="203.2" cy="198.6" r="2.5" fill="#f0d040" opacity="0.8"/>
<circle cx="204.0" cy="197.4" r="2.5" fill="#f0d040" opacity="0.8"/>
<circle cx="199.5" cy="203.4" r="2.5" fill="#f0d040" opacity="0.8"/>
<circle cx="195.1" cy="201.1" r="2.5" fill="#f0d040" opacity="0.8"/>
<circle cx="204.2" cy="198.0" r="2.5" fill="#f0d040" opacity="0.8"/>
</svg>